# xmcd
#
# Track frame offsets:
#	150
#	10958
#	23043
#	35181
#	46061
#	58698
#	74358
#	89016
#	105583
#	117668
#	134046
#	146580
#	159154
#	171146
#	183841
#	197431
#	208907
#	222883
#	235920
#	248199
#	259481
#	275988
#	290834
#	303265
#
# Disc length: 4227 seconds
#
# Revision: 1
# Processed by: cddbd v1.5.2PL0 Copyright (c) Steve Scherf et al.
# Submitted via: audiograbber 1.83.01
#
DISCID=78108118
DTITLE=Dick Damron - Lost In The Music [CD 2/3)
DYEAR=2012
DGENRE=Country
TTITLE0=Honky Tonk Angels And Good Ole Boys
TTITLE1=Reunion
TTITLE2=You Don't Know The Lady
TTITLE3=Sundown Lady
TTITLE4=Rollin' Stone
TTITLE5=The Same Old Songs
TTITLE6=The Last Of The Rodeo Riders
TTITLE7=Jesus It's Me Again
TTITLE8=Homegrown
TTITLE9=Good Ol' Time Country Rock'n Roll
TTITLE10=A Little More Country Music
TTITLE11=Lover
TTITLE12=Tequila Charlie's
TTITLE13=Burnin' A Hole In My Heart
TTITLE14=Last Dance On A Saturday Night
TTITLE15=Don't Touch Him
TTITLE16=Ridin' Shotgun
TTITLE17=Give It All We've Got
TTITLE18=Softer Than Satin
TTITLE19=Cozy Inn
TTITLE20=Fallin In And Out Of Love (& Ginny Mitchell)
TTITLE21=Rise Against The Wind (& Ginny Mitchell)
TTITLE22=Susan Flowers (w/o 1 Guitar)
TTITLE23=Just Another Old Rodeo Song (+ Chorus)
EXTD=
EXTT0=
EXTT1=
EXTT2=
EXTT3=
EXTT4=
EXTT5=
EXTT6=
EXTT7=
EXTT8=
EXTT9=
EXTT10=
EXTT11=
EXTT12=
EXTT13=
EXTT14=
EXTT15=
EXTT16=
EXTT17=
EXTT18=
EXTT19=
EXTT20=
EXTT21=
EXTT22=
EXTT23=
PLAYORDER=
